Coordinates
version=1
nRows=17
nColumns=24
inDegrees=yes

Units are S.I. units (second, meters, Newtons, ...)
Angles are in degrees.

endheader
time	pelvis_tilt	pelvis_list	pelvis_rotation	pelvis_tx	pelvis_ty	pelvis_tz	hip_flexion_r	hip_adduction_r	hip_rotation_r	knee_angle_r	ankle_angle_r	subtalar_angle_r	mtp_angle_r	hip_flexion_l	hip_adduction_l	hip_rotation_l	knee_angle_l	ankle_angle_l	subtalar_angle_l	mtp_angle_l	lumbar_extension	lumbar_bending	lumbar_rotation
      1.35400000	      1.17094240	      1.29559235	     -5.20263201	      0.28588733	      1.02225215	      0.25504880	     12.87813644	     -6.50917301	     -6.81195690	    -63.50941875	      4.80218273	     -5.83485599	      5.62343824	      8.09508431	      2.05560807	    -12.39634911	    -10.28914472	      1.33759539	     -8.01829546	     -2.13823482	    -11.59948073	     -2.93816406	      5.09364679
      1.35816667	      1.15852819	      1.25286536	     -5.04649136	      0.29081255	      1.02286213	      0.25449877	     13.47190843	     -6.42175081	     -6.94714371	    -63.29293457	      4.93935737	     -5.94317014	      5.57449069	      7.68637692	      2.09308289	    -12.29373092	    -10.05953830	      1.48454079	     -7.84381353	     -2.15305902	    -11.62462653	     -2.84487532	      4.87336153
      1.36233333	      1.14729195	      1.22053359	     -4.92779404	      0.29576470	      1.02346558	      0.25401883	     14.05665419	     -6.33524661	     -7.04192175	    -63.01041676	      5.05096054	     -6.01890857	      5.55726547	      7.25470157	      2.13970901	    -12.20899459	     -9.79014812	      1.61442105	     -7.73724274	     -2.15687661	    -11.63514578	     -2.78978978	      4.79727256
      1.36650000	      1.13596045	      1.13943467	     -4.70336805	      0.30065702	      1.02405561	      0.25336060	     14.59403293	     -6.22357055	     -7.26563666	    -62.64434470	      5.12943802	     -6.18744552	      5.47212445	      6.85998640	      2.13596484	    -12.05553676	     -9.58916494	      1.79097244	     -7.49343019	     -2.18433842	    -11.68316599	     -2.62641337	      4.41136953
      1.37066667	      1.15384382	      1.10443459	     -4.53585545	      0.30559409	      1.02464463	      0.25277531	     15.10376785	     -6.16164904	     -7.43858764	    -62.24140768	      5.26342510	     -6.32131062	      5.41857339	      6.40198750	      2.18468429	    -11.94989979	     -9.31674070	      1.88266738	     -7.34817193	     -2.20214215	    -11.73436968	     -2.52835164	      4.25889206
      1.37483333	      1.19647221	      1.03694918	     -4.33822933	      0.31052992	      1.02527537	      0.25216225	     15.55009131	     -6.07077111	     -7.65115376	    -61.74880843	      5.32580442	     -6.47546187	      5.34721704	      5.91974612	      2.19778787	    -11.81619659	     -9.05750335	      2.01865396	     -7.16395818	     -2.22576644	    -11.82222348	     -2.39552339	      4.00055198
      1.37900000	      1.25584473	      0.94350367	     -4.11605931	      0.31547171	      1.02593681	      0.25150232	     15.94306415	     -5.96114715	     -7.89662732	    -61.17156031	      5.35846139	     -6.59525811	      5.23948213	      5.41877382	      2.18606978	    -11.64269003	     -8.80174458	      2.19108317	     -7.01193514	     -2.26309507	    -11.93381738	     -2.24016258	      3.69568065
      1.38316667	      1.23259407	      0.95374785	     -4.01580686	      0.32039615	      1.02633822	      0.25106885	     16.48363075	     -5.92715321	     -7.99986442	    -60.63498284	      5.47046606	     -6.67386234	      5.22701198	      4.99084185	      2.26731617	    -11.59029283	     -8.50216912	      2.30477293	     -6.91940598	     -2.26524250	    -11.92564812	     -2.21547351	      3.65707899
      1.38733333	      1.39962756	      0.81078702	     -3.68170126	      0.32536370	      1.02716433	      0.25017446	     16.66861749	     -5.81972472	     -8.40182703	    -59.89100456	      5.51093073	     -6.83409474	      5.05261655	      4.37662556	      2.21624450	    -11.32895044	     -8.24020453	      2.42775142	     -6.71356928	     -2.32431096	    -12.17409718	     -1.96299318	      3.15175638
      1.39150000	      1.36724464	      0.83167488	     -3.57987847	      0.33027728	      1.02748150	      0.24978307	     17.18812662	     -5.79372718	     -8.51012587	    -59.25176016	      5.60078089	     -6.92826233	      5.03876050	      3.96082190	      2.30078295	    -11.27548935	     -7.94253075	      2.54390424	     -6.62163446	     -2.32641552	    -12.15021433	     -1.96336840	      3.11544014
      1.39566667	      1.48547486	      0.65907324	     -3.23200765	      0.33523245	      1.02819218	      0.24891908	     17.38412263	     -5.64667468	     -8.93941596	    -58.38238003	      5.52630979	     -7.20227152	      4.91336204	      3.41333582	      2.19702057	    -11.01944220	     -7.71238320	      2.71187479	     -6.38965104	     -2.36098873	    -12.34235261	     -1.66523826	      2.65075211
      1.39983333	      1.62557196	      0.57872668	     -2.95820832	      0.34017759	      1.02883346	      0.24815524	     17.58357590	     -5.59145402	     -9.27911482	    -57.52671084	      5.58584126	     -7.29514790	      4.76417006	      2.81559713	      2.19626082	    -10.78968945	     -7.41076670	      2.79217156	     -6.27577209	     -2.40391651	    -12.54681195	     -1.50729373	      2.29752967
      1.40400000	      1.68326483	      0.51071238	     -2.70472906	      0.34511193	      1.02929272	      0.24747774	     17.87059799	     -5.53088886	     -9.59399803	    -56.63986140	      5.60753186	     -7.44506357	      4.63159900	      2.32036021	      2.19088712	    -10.59594865	     -7.14058712	      2.91378530	     -6.15145839	     -2.43817947	    -12.64665474	     -1.36210881	      2.02475419
      1.40816667	      1.80741136	      0.45544942	     -2.42456958	      0.35005249	      1.02981901	      0.24671642	     18.05719943	     -5.50931538	     -9.95366283	    -55.70156459	      5.67933598	     -7.53794736	      4.43392789	      1.74749892	      2.20595554	    -10.36730877	     -6.84827470	      3.00457768	     -6.05138118	     -2.48683477	    -12.82520612	     -1.22089225	      1.66251640
      1.41233333	      1.89348061	      0.39160282	     -2.14952892	      0.35498690	      1.03025828	      0.24601210	     18.26783681	     -5.46526994	    -10.30625154	    -54.70888825	      5.69625929	     -7.66563863	      4.24135417	      1.22405697	      2.19861704	    -10.15118556	     -6.57539726	      3.11250648	     -5.93345433	     -2.52912905	    -12.95702856	     -1.07351819	      1.34732096
      1.41650000	      1.97221384	      0.33051347	     -1.86983022	      0.35991889	      1.03065233	      0.24531012	     18.46690431	     -5.42539975	    -10.67019759	    -53.66833921	      5.71123499	     -7.79360678	      4.05052119	      0.71238218	      2.18941069	     -9.92681267	     -6.30824922	      3.22301208	     -5.83119443	     -2.56550130	    -13.08005478	     -0.92864912	      1.02596906
      1.42066667	      2.02129763	      0.26692981	     -1.60306885	      0.36483560	      1.03096084	      0.24466692	     18.68481053	     -5.37062574	    -11.01976523	    -52.58015881	      5.68580438	     -7.94799781	      3.90331199	      0.24036641	      2.16793819	     -9.71174032	     -6.05969243	      3.36931870	     -5.73953561	     -2.58754377	    -13.16870195	     -0.78483192	      0.75704098
